<svg width="272" height="272" viewBox="0 0 272 272" fill="none" xmlns="http://www.w3.org/2000/svg">
<circle cx="136" cy="136" r="136" fill="#002992"/>
<path d="M36.7121 157.435L21.3618 160.204L20.6627 156.329L36.013 153.56L36.7121 157.435ZM36.1575 154.361L32.8883 154.951L31.3886 146.637L34.6578 146.047L36.1575 154.361ZM29.9221 155.486L26.7395 156.06L25.3804 148.525L28.563 147.951L29.9221 155.486ZM24.0765 156.54L20.8072 157.13L19.331 148.946L22.6002 148.356L24.0765 156.54Z" fill="#FAFF00"/>
<path d="M34.0254 140.093L18.4313 139.746L18.4945 136.909L27.6675 131.127L27.6376 132.469L18.7306 126.307L18.7937 123.47L34.3879 123.817L34.3012 127.71L25.2174 127.508L25.4071 126.896L30.7159 130.601L30.6591 133.152L25.1911 136.596L25.0288 135.976L34.1126 136.178L34.0254 140.093Z" fill="#FAFF00"/>
<path d="M30.815 112.339L27.9646 111.678L28.6601 108.678C28.7462 108.306 28.7526 107.954 28.6793 107.621C28.595 107.27 28.4244 106.967 28.1674 106.712C27.9104 106.456 27.5604 106.277 27.1175 106.175C26.6746 106.072 26.2816 106.079 25.9385 106.195C25.5811 106.308 25.2945 106.505 25.0788 106.786C24.852 107.05 24.6956 107.367 24.6095 107.739L23.914 110.739L21.0636 110.078L21.9131 106.414C22.1383 105.442 22.542 104.61 23.1243 103.917C23.6922 103.22 24.3935 102.728 25.2281 102.44C26.0485 102.148 26.9731 102.121 28.0018 102.36C29.0019 102.592 29.8205 103.022 30.4575 103.652C31.0802 104.278 31.4933 105.029 31.697 105.904C31.9006 106.779 31.8898 107.702 31.6645 108.674L30.815 112.339ZM35.5532 116.644L20.3581 113.122L21.2474 109.285L36.4425 112.808L35.5532 116.644Z" fill="#FAFF00"/>
<path d="M43.6729 91.9249C43.1732 93.0188 42.5263 93.9407 41.7322 94.6906C40.9382 95.4404 40.0492 96.0098 39.0653 96.3988C38.0874 96.7745 37.0632 96.9516 35.9927 96.9302C34.9088 96.9026 33.8466 96.6512 32.806 96.1758C31.7654 95.7004 30.8902 95.0749 30.1804 94.2991C29.4633 93.5039 28.9267 92.6138 28.5704 91.6287C28.2142 90.6436 28.0663 89.6086 28.1266 88.5235C28.1736 87.4324 28.4469 86.3398 28.9466 85.2459C29.4464 84.152 30.0933 83.2301 30.8873 82.4802C31.668 81.7243 32.5473 81.1585 33.5251 80.7828C34.503 80.4072 35.5241 80.2368 36.5886 80.2715C37.6591 80.293 38.7147 80.5414 39.7552 81.0167C40.7958 81.4921 41.6746 82.1274 42.3917 82.9226C43.1149 83.7044 43.6613 84.5909 44.0308 85.5821C44.387 86.5672 44.5417 87.6053 44.4947 88.6965C44.4405 89.7682 44.1665 90.8443 43.6729 91.9249ZM40.4529 90.5023C40.8185 89.7018 40.962 88.9289 40.8833 88.1835C40.8046 87.438 40.5249 86.762 40.0441 86.1554C39.5634 85.5488 38.9028 85.0535 38.0623 84.6696C37.4487 84.3892 36.8457 84.2267 36.2535 84.1818C35.6673 84.1237 35.1149 84.1858 34.5962 84.3681C34.0642 84.5443 33.5885 84.8268 33.169 85.2157C32.7495 85.6045 32.4026 86.0991 32.1284 86.6994C31.7627 87.4998 31.6192 88.2728 31.6979 89.0182C31.7633 89.7576 32.0364 90.4305 32.5171 91.0371C32.9978 91.6437 33.6518 92.136 34.4789 92.5138C35.1192 92.8064 35.7392 92.9847 36.3387 93.049C36.9309 93.0938 37.493 93.0281 38.025 92.8519C38.5437 92.6696 39.0128 92.384 39.4323 91.9952C39.8384 91.6002 40.1786 91.1026 40.4529 90.5023Z" fill="#FAFF00"/>
<path d="M52.5502 75.5111L37.2358 69.7433L39.6462 66.6851L51.2864 71.3216L50.2377 72.652L42.9827 62.4519L44.9301 59.9811L56.543 64.6521L55.508 65.9653L48.2802 55.7306L50.6771 52.6896L59.8497 66.2499L57.8886 68.738L46.293 64.0805L47.2735 62.8365L54.5249 73.0057L52.5502 75.5111Z" fill="#FAFF00"/>
<path d="M67.5215 58.5574L57.6141 46.51L60.6557 44.0086L70.5631 56.056L67.5215 58.5574ZM69.9344 56.5731L67.8244 54.0073L74.3493 48.6413L76.4594 51.2071L69.9344 56.5731ZM65.91 51.6794L63.8558 49.1815L69.769 44.3186L71.8232 46.8165L65.91 51.6794ZM62.137 47.0915L60.027 44.5257L66.45 39.2436L68.56 41.8094L62.137 47.0915Z" fill="#FAFF00"/>
<path d="M81.1108 40.8313L79.7327 38.3755L82.3227 36.922C82.8855 36.6062 83.2386 36.2315 83.382 35.7978C83.5311 35.3441 83.4728 34.8807 83.2072 34.4074C82.9488 33.947 82.5872 33.6622 82.1223 33.5531C81.6631 33.424 81.152 33.5174 80.5893 33.8332L77.9992 35.2867L76.5673 32.735L79.6369 31.0124C80.5578 30.4956 81.4605 30.216 82.345 30.1738C83.2422 30.1243 84.0578 30.2889 84.7917 30.6675C85.5255 31.0462 86.1185 31.6384 86.5707 32.4442C87.0229 33.25 87.2167 34.0747 87.1519 34.9183C87.0928 35.7419 86.802 36.5274 86.2795 37.2747C85.7499 38.0092 85.0055 38.6456 84.0462 39.184L81.1108 40.8313ZM81.4765 47.8663L73.843 34.2639L77.2771 32.3367L84.9107 45.9391L81.4765 47.8663ZM88.8437 43.7319L81.6185 40.1175L84.2874 37.6358L92.8151 41.5032L88.8437 43.7319Z" fill="#FAFF00"/>
<path d="M98.1168 39.4662L92.5052 24.9126L96.1795 23.4959L101.791 38.0495L98.1168 39.4662Z" fill="#FAFF00"/>
<path d="M108.12 35.8081L104.791 20.5695L107.477 19.9826L109.319 22.8456L111.967 34.9677L108.12 35.8081ZM118.63 33.5122L107.262 24.1506L107.477 19.9826L118.867 29.3395L118.63 33.5122ZM118.63 33.5122L116.942 30.5257L114.312 18.4895L118.16 17.6491L121.488 32.8877L118.63 33.5122Z" fill="#FAFF00"/>
<path d="M135.841 32.2851C134.653 32.2908 133.552 32.098 132.538 31.7069C131.539 31.301 130.656 30.7332 129.89 30.0035C129.138 29.2738 128.548 28.4259 128.118 27.4599C127.702 26.4793 127.492 25.4169 127.486 24.2729C127.481 23.1143 127.688 22.0499 128.109 21.0799C128.544 20.0952 129.149 19.2416 129.923 18.5192C130.697 17.7822 131.596 17.2132 132.621 16.8123C133.66 16.3967 134.766 16.186 135.94 16.1804C137.333 16.1738 138.596 16.4171 139.727 16.9103C140.859 17.3889 141.779 18.0592 142.487 18.9212L139.86 21.5738C139.329 20.9456 138.747 20.4791 138.115 20.1741C137.483 19.8544 136.749 19.6966 135.913 19.7006C135.062 19.7047 134.3 19.899 133.627 20.2835C132.969 20.6533 132.444 21.1765 132.051 21.8531C131.658 22.5296 131.464 23.3226 131.468 24.2319C131.473 25.1412 131.66 25.9397 132.03 26.6272C132.414 27.3147 132.93 27.8476 133.577 28.2259C134.239 28.604 134.995 28.7911 135.846 28.787C136.697 28.783 137.415 28.6182 138 28.2927C138.599 27.9672 139.052 27.4957 139.357 26.8782C139.677 26.2607 139.834 25.5266 139.83 24.6759L142.501 26.3792L135.394 26.2372L135.378 23.0252L143.782 22.985L143.785 23.579C143.794 25.4417 143.464 27.0199 142.796 28.3138C142.127 29.6077 141.193 30.5948 139.994 31.2752C138.809 31.9409 137.425 32.2775 135.841 32.2851Z" fill="#FAFF00"/>
<path d="M165.019 36.3827C163.767 36.0135 162.732 35.5021 161.916 34.8485C161.114 34.199 160.453 33.3543 159.934 32.3143L163.028 30.6119C163.386 31.3141 163.818 31.9 164.321 32.3696C164.829 32.8252 165.456 33.1629 166.202 33.3828C166.835 33.5695 167.351 33.6071 167.751 33.4956C168.169 33.3743 168.434 33.1237 168.546 32.7438C168.65 32.3922 168.608 32.0664 168.421 31.7667C168.239 31.4528 167.961 31.1493 167.589 30.856C167.235 30.5528 166.827 30.2492 166.367 29.9451C165.924 29.6311 165.483 29.2869 165.043 28.9125C164.621 28.5281 164.249 28.1049 163.926 27.6428C163.618 27.1849 163.412 26.6654 163.308 26.0843C163.204 25.5031 163.262 24.8398 163.482 24.0942C163.764 23.1376 164.23 22.388 164.879 21.8455C165.542 21.3072 166.336 20.9754 167.26 20.8503C168.183 20.7251 169.187 20.8223 170.27 21.1417C171.353 21.4611 172.298 21.9386 173.105 22.574C173.911 23.2094 174.515 23.9378 174.915 24.7591L171.806 26.4342C171.488 25.8513 171.131 25.3788 170.733 25.0169C170.335 24.6549 169.862 24.393 169.313 24.2312C168.793 24.0777 168.358 24.0488 168.008 24.1446C167.659 24.2404 167.435 24.4571 167.335 24.7947C167.235 25.1323 167.281 25.444 167.472 25.7297C167.663 26.0154 167.938 26.3028 168.296 26.5919C168.672 26.8711 169.082 27.1677 169.524 27.4817C169.981 27.7998 170.422 28.1441 170.848 28.5143C171.274 28.8846 171.639 29.3058 171.944 29.7778C172.262 30.2539 172.469 30.7966 172.565 31.4059C172.66 32.0151 172.596 32.6996 172.372 33.4592C171.932 34.9504 171.064 35.9484 169.769 36.4532C168.487 36.9621 166.904 36.9386 165.019 36.3827Z" fill="#FAFF00"/>
<path d="M182.697 43.4007C181.522 42.7991 180.607 42.0263 179.954 41.082C179.32 40.1315 178.979 39.0918 178.931 37.9631C178.882 36.8345 179.142 35.7153 179.71 34.6056L183.981 26.2633L187.467 28.0478L183.066 36.6447C182.812 37.1408 182.696 37.6251 182.717 38.0976C182.759 38.5637 182.912 38.9882 183.178 39.3712C183.463 39.7478 183.834 40.053 184.291 40.287C184.761 40.5276 185.219 40.6467 185.665 40.6444C186.117 40.629 186.538 40.4986 186.928 40.253C187.317 40.0075 187.639 39.6367 187.893 39.1406L192.304 30.5241L195.829 32.3287L191.548 40.6906C190.98 41.8003 190.224 42.6655 189.28 43.2862C188.343 43.8939 187.303 44.2185 186.162 44.2601C185.04 44.2954 183.885 44.0089 182.697 43.4007Z" fill="#FAFF00"/>
<path d="M201.348 47.2739L203.084 45.0568L205.423 46.8879C205.931 47.2858 206.413 47.4675 206.868 47.433C207.344 47.3959 207.749 47.1638 208.084 46.7365C208.41 46.3208 208.533 45.8774 208.455 45.4064C208.397 44.9328 208.115 44.4971 207.606 44.0992L205.268 42.2681L207.072 39.9644L209.844 42.1346C210.675 42.7857 211.28 43.5112 211.66 44.3113C212.051 45.1204 212.213 45.9365 212.146 46.7596C212.079 47.5826 211.76 48.3579 211.191 49.0854C210.621 49.8129 209.934 50.3091 209.131 50.574C208.348 50.8364 207.511 50.8703 206.62 50.6757C205.738 50.4695 204.864 50.0274 203.998 49.3492L201.348 47.2739ZM194.996 50.319L204.613 38.0383L207.713 40.4662L198.096 52.7469L194.996 50.319ZM201.647 55.5275L202.202 47.4677L205.52 48.976L205.233 58.3352L201.647 55.5275Z" fill="#FAFF00"/>
<path d="M212.324 65.7988L220.247 51.1349L223.002 54.307L216.372 65.896L215.188 64.5341L227.634 59.6381L230.332 62.7438L214.661 68.4893L212.324 65.7988Z" fill="#FAFF00"/>
<path d="M222.011 78.3936L235.207 70.0772L237.306 73.4088L224.11 81.7252L222.011 78.3936Z" fill="#FAFF00"/>
<path d="M229.414 91.841L241.385 80.2435L243.058 84.0983L233.245 93.1526L232.527 91.4977L245.869 90.5767L247.507 94.3507L230.833 95.1105L229.414 91.841Z" fill="#FAFF00"/>
<path d="M236.307 114.073C236.069 112.894 236.051 111.768 236.254 110.694C236.456 109.621 236.841 108.638 237.409 107.746C237.98 106.867 238.705 106.123 239.584 105.511C240.478 104.897 241.485 104.477 242.607 104.251C243.728 104.024 244.804 104.017 245.834 104.228C246.881 104.45 247.838 104.856 248.705 105.444C249.572 106.032 250.3 106.783 250.888 107.697C251.491 108.607 251.911 109.652 252.149 110.831C252.387 112.01 252.404 113.136 252.202 114.209C252.014 115.28 251.635 116.254 251.064 117.132C250.493 118.011 249.766 118.748 248.884 119.345C248.005 119.956 247.005 120.375 245.884 120.601C244.762 120.828 243.678 120.83 242.63 120.607C241.586 120.399 240.623 120.002 239.742 119.417C238.875 118.829 238.14 118.079 237.538 117.168C236.952 116.269 236.542 115.237 236.307 114.073ZM239.749 113.333C239.923 114.196 240.261 114.906 240.762 115.463C241.263 116.02 241.887 116.403 242.632 116.612C243.378 116.82 244.203 116.833 245.109 116.651C245.77 116.517 246.354 116.295 246.859 115.983C247.368 115.686 247.779 115.311 248.091 114.859C248.419 114.404 248.638 113.896 248.749 113.335C248.86 112.774 248.851 112.17 248.72 111.523C248.546 110.66 248.208 109.951 247.707 109.393C247.22 108.833 246.603 108.449 245.858 108.24C245.113 108.032 244.294 108.017 243.403 108.197C242.713 108.336 242.106 108.556 241.583 108.856C241.078 109.167 240.661 109.551 240.334 110.006C240.021 110.458 239.809 110.964 239.698 111.526C239.601 112.084 239.618 112.686 239.749 113.333Z" fill="#FAFF00"/>
<path d="M244.929 131.944L247.745 131.949L247.741 134.918C247.739 135.564 247.893 136.055 248.2 136.393C248.522 136.746 248.955 136.922 249.497 136.923C250.025 136.924 250.451 136.749 250.774 136.397C251.112 136.061 251.281 135.57 251.283 134.924L251.287 131.954L254.213 131.959L254.208 135.479C254.206 136.535 254.006 137.459 253.609 138.25C253.212 139.056 252.668 139.686 251.978 140.139C251.288 140.593 250.481 140.819 249.557 140.817C248.633 140.816 247.819 140.58 247.116 140.109C246.427 139.654 245.886 139.015 245.491 138.193C245.111 137.371 244.922 136.41 244.924 135.31L244.929 131.944ZM238.62 128.81L254.218 128.835L254.212 132.773L238.614 132.748L238.62 128.81ZM238.607 137.258L245.302 132.737L246.154 136.28L238.599 141.812L238.607 137.258Z" fill="#FAFF00"/>
<path d="M237.861 152.193C238.093 150.908 238.49 149.825 239.051 148.942C239.61 148.074 240.378 147.326 241.356 146.698L243.383 149.589C242.724 150.022 242.188 150.514 241.776 151.066C241.377 151.62 241.109 152.279 240.971 153.044C240.854 153.694 240.873 154.211 241.027 154.597C241.193 154.999 241.47 155.236 241.86 155.306C242.221 155.371 242.54 155.294 242.818 155.076C243.11 154.861 243.382 154.552 243.633 154.15C243.897 153.766 244.154 153.328 244.407 152.837C244.671 152.363 244.966 151.887 245.29 151.409C245.627 150.948 246.007 150.532 246.432 150.162C246.854 149.806 247.348 149.545 247.915 149.379C248.481 149.212 249.147 149.198 249.912 149.336C250.893 149.513 251.689 149.895 252.298 150.482C252.905 151.084 253.321 151.837 253.545 152.742C253.769 153.646 253.781 154.654 253.581 155.766C253.38 156.877 253.008 157.868 252.463 158.739C251.919 159.609 251.26 160.288 250.486 160.774L248.485 157.865C249.03 157.486 249.461 157.079 249.778 156.645C250.095 156.21 250.304 155.711 250.406 155.148C250.502 154.614 250.484 154.179 250.351 153.842C250.218 153.505 249.978 153.305 249.632 153.243C249.285 153.18 248.98 153.259 248.717 153.48C248.454 153.701 248.198 154.005 247.949 154.392C247.712 154.797 247.462 155.236 247.197 155.71C246.93 156.198 246.636 156.674 246.314 157.138C245.992 157.601 245.612 158.01 245.176 158.363C244.737 158.731 244.22 158.995 243.625 159.156C243.029 159.317 242.342 159.327 241.562 159.187C240.032 158.911 238.947 158.156 238.305 156.922C237.66 155.703 237.512 154.127 237.861 152.193Z" fill="#FAFF00"/>
<path d="M90.8626 104.485C95.7868 104.485 99.7786 100.347 99.7786 95.2427C99.7786 90.1381 95.7868 86 90.8626 86C85.9384 86 81.9466 90.1381 81.9466 95.2427C81.9466 100.347 85.9384 104.485 90.8626 104.485Z" fill="white"/>
<path d="M88.4442 161.959V193.678C88.3945 199.441 79.4477 199.441 79.3687 193.678V161.959H67.6583L80.2469 119.573H78.1976L70.8786 143.713C69.0284 149.052 61.4986 146.89 63.2668 141.187L71.4641 115.081C72.4068 112.083 76.3474 106.79 83.1746 106.66H89.3225H96.3488C102.979 106.79 106.936 112.128 108.059 115.081L116.256 141.187C117.919 146.862 110.449 149.192 108.645 143.713L101.326 119.573H98.9836L111.865 161.959H99.8619V193.678C99.9556 199.441 91.044 199.413 91.0791 193.678V161.959H88.4442Z" fill="white"/>
<path d="M136 104.485C141.232 104.485 145.473 100.347 145.473 95.2427C145.473 90.1381 141.232 86 136 86C130.768 86 126.527 90.1381 126.527 95.2427C126.527 100.347 130.768 104.485 136 104.485Z" fill="#FAFF00"/>
<path d="M181.137 104.485C186.062 104.485 190.053 100.347 190.053 95.2427C190.053 90.1381 186.062 86 181.137 86C176.213 86 172.221 90.1381 172.221 95.2427C172.221 100.347 176.213 104.485 181.137 104.485Z" fill="white"/>
<path d="M180.948 161.959V193.678C180.898 199.441 171.952 199.441 171.872 193.678V161.959H160.162L172.751 119.573H170.701L163.382 143.713C161.532 149.052 154.002 146.89 155.771 141.187L163.968 115.081C164.911 112.083 168.851 106.79 175.678 106.66H181.826H188.853C195.483 106.79 199.44 112.128 200.563 115.081L208.76 141.187C210.423 146.862 202.953 149.192 201.149 143.713L193.83 119.573H191.487L204.369 161.959H192.366V193.678C192.459 199.441 183.548 199.413 183.583 193.678V161.959H180.948Z" fill="white"/>
<path d="M134.669 161.959V193.678C134.618 199.441 125.485 199.441 125.404 193.678V161.959H113.45L126.301 119.573H124.209L116.737 143.713C114.849 149.052 107.162 146.89 108.967 141.187L117.335 115.081C118.297 112.083 122.32 106.79 129.29 106.66H135.566H142.738C149.507 106.79 153.546 112.128 154.693 115.081L163.061 141.187C164.758 146.862 157.132 149.192 155.29 143.713L147.819 119.573H145.428L158.578 161.959H146.325V193.678C146.42 199.441 137.323 199.413 137.359 193.678V161.959H134.669Z" fill="#FAFF00"/>
</svg>
